<svg id="Camada_1" data-name="Camada 1" xmlns="http://www.w3.org/2000/svg" viewBox="0 0 281.85 346.2"><defs><style>.cls-1{fill:#d4ad68;}.cls-2{fill:#001d3d;}</style></defs><title>deoest_logo</title><path class="cls-1" d="M9,31.22,104,163.45,0,315C1.2,331.44,8.72,338.38,26.4,330L142.34,161.1c4.37-11.83,4.76-22.14-2.12-29.65L49.91,5.33C22.34-7.15,9.34,2.58,9,31.22Z" transform="translate(-0.02 0.01)"/><path class="cls-1" d="M185,165.79,275.08,299c4.82,20.74.15,41-31.06,30.82L147.79,197.33c-5.85-10.55-8.61-21.09,0-31.54L258.34,4.86c10.36-2.15,21,.54,23.53,15.53" transform="translate(-0.02 0.01)"/><path class="cls-2" d="M68.7,345.52A33.9,33.9,0,0,1,51,340.74,36.44,36.44,0,0,1,38.16,328a35.33,35.33,0,0,1,0-35.48A36.36,36.36,0,0,1,51,279.65,35,35,0,0,1,92,283.74V250.88h12v59.38A34.81,34.81,0,0,1,99.13,328a36.4,36.4,0,0,1-12.76,12.72A33.8,33.8,0,0,1,68.7,345.52ZM68,333.88a22.52,22.52,0,0,0,11.74-3.13,23.33,23.33,0,1,0-23.48,0A22.54,22.54,0,0,0,68,333.91Z" transform="translate(-0.02 0.01)"/><path class="cls-2" d="M134.69,275.57a33.79,33.79,0,0,1,16,3.9A36.33,36.33,0,0,1,163,289.94a34.83,34.83,0,0,1,6.46,14.94,43.11,43.11,0,0,1,.51,6,35.48,35.48,0,0,1-.51,6H112.15a23.35,23.35,0,0,0,8.23,12.5,22.42,22.42,0,0,0,14.31,4.84,23,23,0,0,0,16.58-6.9l7.41,9.44a35.2,35.2,0,0,1-40.07,5.57,35.85,35.85,0,0,1-12.27-10.42,35.24,35.24,0,0,1-6.43-15,43.11,43.11,0,0,1-.51-6,37.67,37.67,0,0,1,.51-6,35.12,35.12,0,0,1,6.43-15,36,36,0,0,1,12.31-10.47A34,34,0,0,1,134.69,275.57Zm.31,12a22.44,22.44,0,0,0-14.35,4.88,23.32,23.32,0,0,0-8.23,12.43h45.07a23.32,23.32,0,0,0-8.23-12.43A22.41,22.41,0,0,0,135,287.6Z" transform="translate(-0.02 0.01)"/><path class="cls-2" d="M201,275.23A34.1,34.1,0,0,1,218.68,280a36.28,36.28,0,0,1,12.82,12.82,35.33,35.33,0,0,1,0,35.48,36.36,36.36,0,0,1-12.82,12.79,35.33,35.33,0,0,1-35.48,0,36.33,36.33,0,0,1-12.78-12.79,35.33,35.33,0,0,1,0-35.48A36.17,36.17,0,0,1,183.2,280,34,34,0,0,1,201,275.23Zm0,12a22.52,22.52,0,0,0-11.74,3.14,23.34,23.34,0,1,0,23.48,0A22.64,22.64,0,0,0,201,287.26Z" transform="translate(-0.02 0.01)"/><path class="cls-2" d="M91.71,250.88h12c-.7-3.45-2.62-5.28-6-5.18C93.9,245.93,91.86,247.63,91.71,250.88Z" transform="translate(-0.02 0.01)"/><path class="cls-2" d="M155,331.73l-3.71-4.64c3.57-2.67,6.79-1.65,9.75,2.16,1.61,2.88.47,5.22-2.34,7.22" transform="translate(-0.02 0.01)"/><path class="cls-2" d="M154.34,333.11l-2.59-3.26c2.5-1.88,4.75-1.16,6.82,1.52,1.13,2,.33,3.67-1.63,5.07" transform="translate(-0.02 0.01)"/></svg>